<?xml version="1.0" standalone="no"?>
<!DOCTYPE svg PUBLIC "-//W3C//DTD SVG 20010904//EN"
 "http://www.w3.org/TR/2001/REC-SVG-20010904/DTD/svg10.dtd">
<svg version="1.0" xmlns="http://www.w3.org/2000/svg"
 width="1668.000000pt" height="1668.000000pt" viewBox="0 0 1668.000000 1668.000000"
 preserveAspectRatio="xMidYMid meet">
<metadata>
Created by potrace 1.14, written by Peter Selinger 2001-2017
</metadata>
<g transform="translate(0.000000,1668.000000) scale(0.100000,-0.100000)"
fill="#000000" stroke="none">
<path d="M10268 14605 c-3 -3 -99 -10 -214 -15 -221 -10 -459 -36 -625 -70
-56 -11 -128 -20 -160 -20 -33 0 -74 -6 -92 -13 -36 -16 -103 -85 -117 -123
-23 -60 -4 -138 46 -185 13 -12 24 -31 24 -40 0 -29 -77 -95 -159 -138 -158
-83 -324 -179 -383 -222 -132 -96 -389 -375 -478 -519 -92 -149 -99 -170 -110
-344 -12 -198 -28 -247 -121 -372 -75 -101 -88 -135 -95 -255 -7 -125 -52
-315 -93 -397 -16 -32 -66 -99 -111 -148 -161 -175 -200 -239 -234 -387 -8
-34 -28 -120 -45 -192 -17 -71 -44 -200 -61 -285 -22 -116 -40 -176 -70 -240
-56 -121 -107 -278 -121 -371 -13 -89 -8 -237 10 -316 25 -106 89 -156 127
-99 9 14 23 26 31 26 8 0 53 12 100 26 98 31 104 29 111 -45 4 -50 4 -50 -58
-116 -93 -96 -149 -136 -305 -214 -136 -69 -272 -157 -451 -291 -48 -36 -151
-112 -228 -169 -128 -94 -205 -157 -306 -247 -19 -18 -57 -50 -85 -71 -81 -64
-154 -150 -257 -303 -99 -148 -140 -234 -178 -374 -12 -44 -31 -100 -42 -125
-11 -25 -33 -84 -50 -130 -31 -87 -91 -213 -195 -411 -34 -63 -73 -146 -88
-185 -15 -38 -39 -101 -55 -140 -49 -121 -156 -463 -201 -640 -40 -160 -49
-183 -149 -380 -146 -289 -208 -391 -314 -512 -50 -58 -115 -132 -144 -166
-30 -34 -114 -152 -187 -262 -282 -425 -350 -632 -416 -1275 -11 -110 -6 -479
7 -557 5 -28 3 -32 -25 -38 -17 -4 -73 -25 -124 -47 -73 -32 -105 -41 -155
-42 -81 -1 -92 11 -92 105 0 83 21 190 66 336 19 62 51 188 70 280 34 159 36
184 46 468 11 330 5 426 -38 620 -38 172 -71 270 -134 395 -32 63 -79 167
-106 230 -58 139 -82 181 -189 330 -99 137 -168 209 -293 303 -72 55 -103 85
-140 142 -110 171 -164 258 -177 289 -8 19 -19 96 -25 172 -18 213 -37 269
-139 398 -98 123 -152 134 -234 50 -34 -35 -49 -45 -65 -40 -31 10 -68 52
-129 145 -54 84 -151 186 -306 326 -89 80 -141 109 -169 94 -16 -9 -18 -19
-12 -77 8 -99 32 -224 64 -342 28 -104 70 -299 70 -326 0 -11 -8 -9 -31 8 -28
21 -32 21 -57 7 -26 -15 -27 -17 -26 -104 0 -84 4 -100 53 -225 70 -181 138
-277 346 -486 88 -88 199 -203 247 -255 47 -53 117 -116 155 -142 80 -54 156
-131 282 -282 89 -106 129 -166 220 -325 24 -41 76 -131 116 -200 39 -69 82
-152 94 -184 31 -82 81 -433 81 -564 0 -90 -4 -117 -30 -191 -16 -48 -40 -131
-54 -186 -14 -55 -41 -146 -60 -202 -56 -158 -71 -327 -42 -443 38 -148 102
-333 139 -405 61 -116 203 -259 308 -308 94 -44 171 -67 220 -67 21 0 85 9
141 20 57 11 135 20 173 20 61 0 84 -6 174 -45 128 -56 150 -61 286 -75 61 -6
193 -32 295 -56 102 -25 246 -56 320 -69 74 -13 187 -34 250 -48 63 -14 151
-28 195 -31 231 -19 394 -45 615 -101 115 -29 325 -55 440 -55 59 0 117 -8
190 -27 116 -29 255 -36 326 -15 51 15 119 73 145 125 12 22 22 62 23 89 1 32
5 48 14 48 39 0 226 -34 282 -52 80 -24 235 -34 314 -19 132 25 215 87 272
206 29 59 34 80 34 140 0 109 -38 211 -102 274 -44 43 -180 119 -298 166 -86
35 -104 38 -185 38 -49 0 -142 -8 -205 -18 -153 -23 -238 -16 -420 34 -80 23
-162 45 -182 51 -20 6 -40 15 -43 20 -3 4 21 18 52 30 32 12 120 46 195 76
184 73 342 109 563 129 148 14 374 71 655 165 80 27 213 70 295 95 202 63 269
99 355 193 39 42 72 73 74 71 3 -3 21 -59 41 -124 70 -231 144 -542 174 -735
17 -107 46 -253 66 -323 19 -70 35 -133 35 -140 0 -7 12 -55 27 -107 35 -124
89 -215 180 -300 70 -66 73 -67 135 -72 36 -3 91 -17 128 -33 110 -46 252 -92
325 -105 47 -8 138 -11 280 -7 257 6 532 48 617 94 46 25 113 88 135 127 9 17
16 16 129 -9 95 -21 137 -26 209 -23 83 3 95 7 150 41 122 75 195 163 195 235
0 64 -32 113 -114 176 -123 93 -137 97 -345 105 l-165 6 -1 115 c0 63 -7 303
-14 533 -16 538 -1 856 54 1132 16 77 50 282 60 360 25 190 87 427 151 579
132 311 240 483 484 776 69 83 86 114 220 385 67 138 156 311 196 385 41 75
99 198 130 274 30 76 77 182 103 235 26 53 65 141 86 196 21 55 47 112 57 127
l19 28 -45 12 c-25 7 -46 18 -46 25 0 9 8 9 35 -3 51 -21 63 -18 115 29 26 23
60 50 75 61 56 38 65 68 65 216 0 281 -48 458 -176 647 -45 67 -204 493 -204
547 0 39 27 125 47 148 9 9 41 33 73 54 71 45 90 76 90 147 0 133 -128 295
-460 579 -55 47 -86 84 -117 138 -60 104 -68 155 -55 323 6 76 13 141 15 144
3 3 41 -6 84 -20 204 -66 269 -70 408 -29 91 28 156 69 199 129 33 45 175 320
211 408 11 26 20 90 25 185 10 190 29 243 125 351 97 109 133 220 122 382 -3
51 -13 112 -22 137 -41 118 -166 275 -310 389 -76 60 -82 66 -160 176 -30 41
-63 85 -75 97 -35 38 -104 137 -159 230 -161 273 -418 545 -637 673 -27 16
-121 80 -209 144 -457 328 -446 322 -638 375 -320 90 -349 96 -448 96 -53 0
-98 -2 -101 -5z m287 -156 c60 -17 174 -51 253 -76 156 -50 183 -66 489 -289
76 -55 200 -143 276 -194 238 -161 400 -324 555 -563 250 -384 327 -481 541
-676 95 -86 157 -166 191 -247 15 -35 20 -68 20 -144 0 -120 -21 -184 -81
-250 -53 -59 -119 -158 -119 -179 0 -9 -4 -21 -8 -26 -19 -22 -32 -97 -32
-182 0 -138 -12 -180 -107 -371 -105 -211 -131 -242 -231 -271 -107 -32 -147
-28 -362 39 -36 11 -75 20 -87 20 -32 0 -73 -40 -83 -80 l-8 -35 -1 35 c0 41
15 65 53 80 42 16 74 12 171 -19 151 -49 195 -56 267 -41 85 18 133 43 166 88
15 21 65 114 112 206 l85 167 6 147 c9 212 46 303 180 447 53 57 72 124 67
239 -3 85 -6 99 -42 168 -39 76 -134 179 -282 304 -33 29 -82 85 -110 125 -27
40 -73 100 -102 134 -29 33 -67 84 -83 113 -17 28 -36 58 -42 65 -7 6 -36 53
-66 102 -30 50 -73 113 -95 140 -23 28 -59 73 -79 102 -44 61 -211 221 -277
266 -25 17 -47 33 -50 37 -3 3 -30 21 -60 40 -30 19 -59 38 -65 43 -11 10
-112 81 -225 158 -41 29 -86 62 -100 74 -37 33 -128 95 -140 95 -5 0 -10 4
-10 9 0 4 -22 22 -49 38 -54 34 -181 77 -371 127 -30 8 -75 22 -100 31 -40 15
-76 16 -310 10 -146 -3 -323 -12 -395 -20 -71 -8 -166 -17 -210 -21 -44 -3
-104 -12 -134 -20 -30 -7 -91 -16 -135 -19 -45 -3 -94 -8 -109 -10 -15 -3 -25
-1 -22 4 3 5 40 12 83 16 42 3 118 13 167 21 167 28 439 54 570 55 72 1 159 5
195 9 146 16 219 12 335 -21z m-1384 -151 c-4 -35 -6 -38 -9 -15 -3 26 3 57
10 57 2 0 1 -19 -1 -42z m98 -153 c2 -51 -22 -96 -79 -151 -51 -48 -190 -144
-211 -144 -10 0 -228 -122 -290 -162 -82 -53 -385 -362 -432 -440 -12 -20 -42
-69 -66 -109 -39 -64 -45 -82 -47 -139 -10 -201 -15 -241 -39 -309 -30 -82
-81 -175 -128 -234 -52 -64 -57 -79 -57 -174 0 -84 -19 -196 -35 -211 -4 -4
-5 4 -1 18 4 14 11 81 16 150 5 69 12 134 16 145 4 11 31 52 60 90 62 82 118
198 132 275 6 30 13 108 16 174 7 139 16 163 110 304 80 122 333 387 438 459
40 28 129 81 198 118 69 37 152 83 185 101 33 18 88 59 122 91 66 63 88 110
78 174 -4 26 -3 30 4 14 5 -11 10 -29 10 -40z m-1414 -2197 c-41 -131 -118
-244 -273 -398 -62 -61 -105 -176 -142 -375 -4 -22 -15 -67 -23 -100 -22 -80
-54 -229 -62 -284 -10 -70 -55 -194 -76 -206 -6 -4 -2 10 9 31 25 50 47 126
67 239 9 50 32 153 50 230 18 77 42 179 53 227 31 131 59 179 187 323 128 143
177 226 211 356 10 40 20 66 22 57 2 -9 -9 -54 -23 -100z m3898 -1068 c-3 -12
-8 -19 -11 -16 -5 6 5 36 12 36 2 0 2 -9 -1 -20z m-22 -97 c-6 -21 -14 -84
-18 -140 -5 -89 -3 -110 17 -172 39 -122 91 -193 227 -311 230 -199 383 -380
383 -451 0 -11 -24 -34 -60 -59 -72 -49 -104 -89 -130 -165 -35 -101 -28 -184
25 -328 63 -169 144 -355 174 -400 121 -180 146 -262 163 -520 l11 -168 -41
-40 c-23 -22 -42 -35 -42 -30 0 5 14 21 30 34 29 25 30 29 30 109 -1 287 -42
453 -145 583 -40 50 -56 84 -149 317 -97 242 -106 283 -83 390 20 95 53 156
105 195 20 15 43 34 50 41 7 6 20 12 28 12 18 0 18 41 -1 86 -28 67 -187 240
-339 369 -120 101 -165 156 -217 260 -48 99 -49 102 -50 200 0 92 28 268 38
238 2 -6 -1 -29 -6 -50z m-4471 -240 c-4 -16 -25 -77 -45 -138 -34 -100 -37
-123 -42 -252 -5 -108 -3 -143 6 -143 8 0 11 -12 9 -32 -4 -48 -22 -40 -30 12
-11 77 -9 185 7 267 12 64 77 279 92 306 9 16 11 5 3 -20z m197 -530 c10 -10
14 -15 9 -10 -6 4 -18 7 -28 7 -10 0 -18 5 -18 10 0 15 16 12 37 -7z m-147
-28 c0 -2 -10 -9 -22 -15 -22 -11 -22 -10 -4 4 21 17 26 19 26 11z m217 -127
c-3 -8 -6 -5 -6 6 -1 11 2 17 5 13 3 -3 4 -12 1 -19z m10 -50 c-3 -7 -5 -2 -5
12 0 14 2 19 5 13 2 -7 2 -19 0 -25z m-23 -70 c-14 -20 -15 -20 -9 -3 4 11 10
29 13 40 5 17 7 18 10 3 2 -10 -4 -28 -14 -40z m-34 -46 c0 -4 -10 -13 -22
-21 -23 -14 -23 -14 -4 8 20 22 26 25 26 13z m-145 -147 c-33 -30 -100 -75
-150 -101 -173 -90 -300 -170 -439 -278 -43 -34 -113 -85 -155 -115 -42 -30
-77 -58 -79 -63 -2 -4 -10 -8 -17 -8 -7 0 -15 -4 -17 -9 -1 -5 -27 -27 -56
-49 -54 -40 -73 -56 -226 -187 -45 -38 -102 -86 -126 -105 -68 -54 -79 -67
-162 -193 -110 -165 -133 -202 -147 -232 -18 -39 -71 -206 -71 -223 0 -7 -11
-37 -24 -65 -13 -29 -35 -88 -50 -132 -32 -93 -134 -311 -142 -303 -3 3 15 46
39 94 25 49 58 127 75 174 17 47 42 114 57 150 14 36 37 104 51 153 13 48 36
113 50 145 41 94 231 369 288 417 28 23 98 83 156 132 109 93 336 271 456 357
38 28 92 69 119 92 28 23 77 58 110 79 33 21 84 53 113 72 29 19 103 61 163
93 108 58 154 87 206 136 14 13 29 24 32 24 3 0 -21 -25 -54 -55z m5059 -1610
c-27 -25 -52 -45 -56 -45 -4 0 14 20 40 45 26 24 51 45 56 45 4 0 -14 -20 -40
-45z m-108 -126 c-14 -25 -37 -75 -50 -111 -14 -37 -50 -118 -80 -180 -30 -62
-75 -169 -101 -238 -25 -69 -73 -174 -105 -235 -33 -60 -85 -161 -115 -223
-179 -368 -238 -482 -272 -521 -21 -25 -66 -81 -101 -125 -254 -326 -288 -382
-433 -714 -62 -141 -105 -304 -158 -597 l-9 -50 -1 44 c0 25 10 94 24 155 74
324 76 331 152 494 24 51 43 96 43 100 0 8 99 201 111 216 5 6 24 34 42 61 68
103 122 178 157 218 20 23 58 71 85 107 26 36 63 81 80 100 37 40 51 67 214
400 67 135 144 290 173 345 48 91 71 144 131 305 11 30 38 90 59 134 22 43 54
115 73 160 65 159 92 213 102 203 2 -2 -8 -24 -21 -48z m-10669 -318 c39 -41
91 -106 115 -144 100 -160 163 -217 250 -225 44 -4 49 -2 96 42 27 25 54 46
59 46 25 0 118 -153 127 -210 4 -19 10 -101 16 -181 10 -156 22 -204 78 -294
17 -27 57 -95 90 -150 78 -130 114 -171 228 -255 109 -81 172 -145 245 -250
29 -41 63 -88 76 -104 29 -35 84 -143 117 -228 13 -35 55 -128 94 -208 79
-163 131 -340 157 -541 19 -142 11 -631 -11 -749 -32 -164 -67 -310 -100 -415
-43 -135 -66 -264 -67 -372 -1 -74 2 -86 29 -129 48 -77 70 -88 183 -92 88 -3
105 -1 162 23 35 14 98 40 139 56 41 16 88 37 103 45 16 9 31 13 34 10 6 -6
-102 -58 -147 -71 -14 -4 -41 -15 -60 -25 -92 -46 -119 -53 -202 -58 -77 -4
-92 -2 -142 21 -31 14 -56 32 -56 40 0 8 -6 17 -14 20 -27 11 -49 115 -42 202
13 158 27 224 76 360 10 28 29 102 43 165 14 63 35 159 47 212 20 92 21 119
18 445 -4 372 -1 346 -66 598 -16 66 -53 160 -107 275 -46 96 -86 186 -90 200
-12 40 -93 191 -126 235 -16 22 -48 67 -71 100 -51 72 -153 173 -223 219 -95
63 -151 123 -214 227 -34 55 -61 104 -61 107 0 4 -10 19 -23 34 -30 35 -86
144 -98 194 -6 21 -14 109 -18 194 -6 141 -10 160 -35 211 -15 31 -36 66 -47
77 -10 12 -19 26 -19 32 0 22 -41 8 -73 -24 -18 -19 -45 -40 -61 -46 -71 -27
-194 51 -261 166 -49 86 -96 147 -174 227 -79 81 -100 92 -102 55 -1 -22 -1
-22 -9 2 -4 14 -8 36 -9 49 -1 24 0 24 36 -10 21 -18 70 -67 110 -108z m-98
-36 c0 -13 -5 -8 -14 15 -18 46 -17 74 0 35 8 -16 14 -39 14 -50z m3892 -108
c-34 -62 -70 -138 -80 -168 -11 -30 -32 -85 -46 -124 -15 -38 -40 -110 -57
-160 -17 -49 -39 -112 -49 -140 -9 -27 -27 -81 -38 -120 -11 -38 -32 -108 -46
-155 -14 -47 -25 -92 -25 -100 0 -37 -66 -210 -126 -331 -37 -74 -70 -136 -74
-139 -4 -3 -11 -19 -17 -36 -6 -17 -29 -61 -52 -98 -23 -38 -41 -72 -41 -77 0
-5 -4 -9 -8 -9 -5 0 -16 -16 -25 -36 -26 -53 -89 -135 -211 -274 -61 -69 -116
-130 -122 -137 -6 -6 -26 -35 -45 -65 -18 -29 -36 -55 -39 -58 -9 -7 -70 -98
-70 -103 0 -4 -83 -133 -98 -152 -4 -5 -25 -46 -46 -90 -21 -44 -42 -88 -47
-98 -68 -132 -132 -415 -159 -697 -5 -52 -14 -130 -20 -172 -11 -81 -7 -509 6
-542 9 -22 -8 -78 -24 -84 -11 -3 -11 2 1 24 8 18 11 38 6 54 -13 46 -9 518 6
640 61 501 93 629 216 872 73 145 290 473 366 553 119 125 218 250 281 353 98
162 276 514 295 582 9 30 36 131 62 223 74 268 176 565 262 762 36 82 114 227
120 221 3 -2 -23 -56 -56 -119z m-3840 -72 c36 -137 49 -290 25 -320 -14 -19
-14 -17 -4 17 14 48 -2 183 -37 318 -13 52 -27 106 -30 120 l-6 25 12 -25 c6
-14 24 -74 40 -135z m-14 -357 c-7 -4 -26 -8 -44 -8 -17 0 -34 -6 -36 -12 -3
-7 -6 -4 -6 7 -1 17 5 20 48 20 27 0 44 -3 38 -7z m-54 -68 c3 -11 2 -18 -3
-15 -4 3 -10 14 -13 25 -3 11 -2 18 3 15 4 -3 10 -14 13 -25z m35 -105 c-3 -3
-9 2 -12 12 -6 14 -5 15 5 6 7 -7 10 -15 7 -18z m20 -40 c-3 -3 -9 2 -12 12
-6 14 -5 15 5 6 7 -7 10 -15 7 -18z m52 -92 c0 -4 -11 8 -25 27 -14 19 -25 38
-25 43 0 6 11 -7 25 -27 14 -20 25 -40 25 -43z m60 -70 c31 -43 35 -51 14 -31
-27 25 -70 88 -61 88 2 0 23 -26 47 -57z m134 -150 c28 -37 13 -26 -39 29 -36
37 -40 43 -14 22 19 -16 43 -39 53 -51z m146 -136 c47 -46 119 -118 160 -161
41 -44 100 -95 130 -115 89 -58 179 -142 275 -254 28 -32 62 -71 76 -86 36
-39 112 -142 107 -147 -2 -2 -20 18 -39 44 -117 156 -298 345 -391 408 -64 44
-168 139 -254 234 -22 25 -74 76 -114 114 -40 37 -64 63 -54 57 11 -6 57 -48
104 -94z m792 -824 c58 -110 150 -267 160 -271 5 -2 8 -8 8 -13 0 -6 23 -48
50 -95 28 -47 50 -89 50 -95 0 -5 6 -22 14 -37 32 -62 83 -372 92 -562 7 -133
-6 -225 -44 -325 -11 -28 -31 -97 -45 -155 -14 -58 -39 -145 -56 -194 -35 -99
-51 -184 -51 -264 0 -54 16 -139 31 -157 7 -10 28 -81 54 -184 8 -30 24 -75
37 -100 51 -102 196 -257 258 -276 14 -4 41 -16 60 -26 43 -23 147 -25 229 -5
31 8 78 16 105 19 72 7 31 -13 -48 -24 -33 -4 -92 -13 -130 -19 -120 -18 -232
29 -354 151 -98 98 -135 166 -192 354 -61 203 -63 210 -56 323 5 84 13 125 50
235 24 72 50 157 56 187 7 30 28 105 47 165 l34 110 -4 175 c-4 175 -27 355
-62 490 -19 77 -81 207 -161 340 -31 52 -82 138 -112 190 -30 52 -56 98 -59
103 -2 4 0 7 5 7 5 0 20 -21 34 -47z m5628 -277 c0 -2 -11 -6 -25 -8 -13 -3
-22 -1 -19 3 5 9 44 13 44 5z m27 -78 c-3 -8 -6 -5 -6 6 -1 11 2 17 5 13 3 -3
4 -12 1 -19z m-60 -160 c-3 -8 -6 -5 -6 6 -1 11 2 17 5 13 3 -3 4 -12 1 -19z
m172 -159 c15 -38 114 -250 135 -289 7 -14 25 -61 39 -105 62 -190 90 -272
102 -300 7 -16 22 -61 33 -100 12 -38 32 -106 46 -150 89 -291 183 -698 201
-870 2 -27 21 -104 41 -170 20 -66 40 -140 44 -165 4 -25 17 -73 29 -107 12
-34 21 -68 22 -75 1 -13 35 -70 78 -130 l24 -33 -32 30 c-43 40 -94 149 -121
260 -12 50 -36 142 -55 205 -18 63 -43 178 -55 255 -51 328 -168 770 -309
1165 -23 63 -41 121 -41 128 0 20 -45 130 -118 287 -66 143 -123 276 -121 285
1 6 37 -71 58 -121z m1468 59 c-3 -7 -5 -2 -5 12 0 14 2 19 5 13 2 -7 2 -19 0
-25z m-1582 -92 c3 -12 -4 -3 -14 19 -11 22 -19 51 -19 65 0 18 4 13 14 -19 7
-24 16 -53 19 -65z m2461 22 c-4 -35 -18 -115 -31 -178 -28 -142 -52 -310 -64
-455 -10 -119 -6 -989 7 -1275 8 -194 17 -224 76 -253 21 -11 25 -16 13 -16
-10 -1 -33 14 -51 32 -38 37 -51 87 -47 182 1 33 -5 152 -14 264 -14 163 -16
287 -13 610 5 422 16 576 59 796 11 55 29 157 41 228 22 133 36 171 24 65z
m-787 -25 c-2 -79 -6 -70 -11 25 -2 28 0 52 5 52 4 0 6 -35 6 -77z m-86 -238
c5 -62 4 -70 -3 -35 -5 25 -11 110 -13 190 -5 132 -4 135 3 35 4 -60 10 -146
13 -190z m-1554 153 c24 -70 21 -92 -2 -26 -22 59 -29 88 -24 88 3 0 15 -28
26 -62z m1648 -30 c-3 -8 -6 -5 -6 6 -1 11 2 17 5 13 3 -3 4 -12 1 -19z m28
-115 c10 -54 26 -137 36 -185 11 -48 19 -119 19 -156 0 -38 5 -118 10 -178 6
-60 15 -161 20 -224 10 -106 20 -177 79 -560 12 -74 21 -162 21 -195 0 -69 16
-178 31 -217 6 -15 20 -30 32 -34 11 -3 25 -11 31 -16 11 -9 215 -127 271
-156 69 -36 168 -134 196 -193 20 -41 30 -51 59 -58 19 -4 76 -18 125 -30 111
-27 164 -27 215 -1 40 20 119 98 132 129 5 13 7 12 7 -4 1 -23 -74 -100 -130
-133 -49 -30 -127 -28 -254 3 -55 14 -108 25 -117 25 -11 0 -27 20 -44 56 -48
101 -137 169 -447 338 -37 20 -74 48 -83 61 -9 14 -21 75 -29 157 -22 200 -31
271 -69 533 -43 299 -43 302 -61 575 -11 162 -23 267 -45 375 -16 83 -30 158
-30 168 0 39 8 11 25 -80z m-1589 -76 c53 -137 66 -177 61 -190 -2 -7 -14 18
-25 55 -22 69 -49 141 -83 216 -10 23 -19 48 -19 55 1 19 28 -36 66 -136z
m1513 -412 c10 -231 26 -380 65 -626 25 -151 44 -305 56 -433 12 -132 24 -195
44 -235 17 -31 61 -74 96 -91 14 -7 95 -53 180 -104 163 -96 243 -162 253
-211 8 -42 -20 -94 -70 -129 -42 -29 -92 -40 -377 -87 -41 -7 -151 -9 -275 -7
l-206 4 -115 41 c-63 23 -151 54 -195 69 -44 15 -100 35 -125 43 -28 10 -38
17 -27 19 10 2 23 -1 30 -6 7 -6 41 -18 77 -27 36 -9 101 -32 145 -50 44 -19
124 -46 178 -60 87 -22 117 -25 278 -25 136 0 204 5 277 19 53 10 133 24 177
31 100 15 153 37 189 80 23 28 27 40 23 73 -8 60 -38 86 -239 213 -21 13 -40
24 -43 24 -2 0 -39 21 -82 47 -43 25 -88 53 -101 60 -63 38 -89 124 -112 363
-11 110 -39 313 -80 575 -11 66 -24 230 -31 365 -6 135 -16 286 -22 335 -7 50
-10 99 -8 110 10 45 30 -145 40 -380z m-1403 68 c-6 -6 -46 105 -45 125 0 9
11 -14 25 -52 13 -38 22 -71 20 -73z m24 -53 c0 -9 -18 -34 -40 -55 -22 -21
-40 -35 -40 -29 0 6 16 25 35 44 27 26 33 39 29 59 -4 20 -3 23 5 11 6 -8 11
-22 11 -30z m-145 -160 c-41 -43 -111 -73 -276 -120 -79 -22 -202 -60 -274
-85 -222 -75 -547 -166 -590 -164 -11 0 30 13 92 29 62 15 134 35 160 44 26 8
82 25 123 36 95 26 137 39 175 54 41 17 143 50 250 81 232 67 285 88 331 130
38 35 44 31 9 -5z m-1280 -391 c-66 -10 -124 -18 -130 -16 -19 7 140 35 195
35 44 0 30 -4 -65 -19z m-210 -40 c-38 -10 -74 -18 -80 -18 -19 2 100 37 125
37 14 0 -6 -8 -45 -19z m-140 -39 c-11 -5 -27 -9 -35 -9 -13 -1 -13 0 0 9 8 5
24 9 35 9 l20 0 -20 -9z m-75 -25 c-14 -8 -29 -14 -35 -14 -5 0 1 6 15 14 14
8 30 14 35 14 6 0 -1 -6 -15 -14z m-85 -34 c-6 -5 -23 -12 -40 -16 l-30 -6 30
15 c35 17 53 20 40 7z m-80 -30 c-6 -5 -21 -11 -35 -15 -21 -5 -20 -3 5 9 35
17 42 18 30 6z m-66 -25 c-11 -11 -79 -34 -79 -27 0 4 15 13 33 19 35 11 53
14 46 8z m-183 -66 c-28 -11 -52 -18 -54 -15 -3 2 6 8 19 13 13 5 31 12 39 15
8 3 22 6 30 6 8 0 -7 -9 -34 -19z m-66 -24 c0 -2 -15 -9 -32 -15 -30 -10 -31
-9 -14 4 18 14 46 20 46 11z m-71 -30 c-14 -12 -69 -35 -69 -28 0 4 12 13 28
19 28 11 48 16 41 9z m-104 -56 c-3 -5 -12 -10 -18 -10 -7 0 -6 4 3 10 19 12
23 12 15 0z m-45 -25 c-7 -9 -15 -13 -19 -10 -3 3 1 10 9 15 21 14 24 12 10
-5z m269 10 c-9 -8 -79 -35 -79 -30 0 3 15 11 33 19 32 15 54 20 46 11z m-299
-29 c0 -5 -69 -46 -78 -46 -6 1 69 50 76 50 1 0 2 -2 2 -4z m200 -17 c-25 -17
-96 -52 -87 -43 12 12 81 52 92 53 6 0 3 -4 -5 -10z m-300 -43 c-6 -8 -28 -24
-48 -36 -36 -20 -37 -20 -12 0 63 51 83 63 60 36z m-813 -12 c-3 -3 -12 -4
-19 -1 -8 3 -5 6 6 6 11 1 17 -2 13 -5z m1013 -4 c0 -5 -8 -10 -17 -10 -15 0
-16 2 -3 10 19 12 20 12 20 0z m500 -12 c0 -5 -9 -4 -20 2 -11 6 -20 12 -20
14 0 2 9 2 20 -1 11 -3 20 -9 20 -15z m-550 -18 c-8 -6 -24 -15 -35 -21 -16
-8 -15 -6 4 10 13 12 28 21 35 21 6 0 4 -5 -4 -10z m720 -30 c90 -24 210 -26
355 -5 170 25 257 15 351 -40 32 -18 19 -14 -74 21 -77 30 -139 30 -291 4 -62
-11 -140 -20 -173 -20 -57 0 -235 41 -268 62 -17 10 -16 10 100 -22z m-961 7
c-2 -1 -13 -9 -24 -17 -19 -14 -19 -14 -6 3 7 9 18 17 24 17 6 0 8 -1 6 -3z
m169 -18 c-10 -5 -18 -16 -18 -23 0 -11 39 -15 173 -19 165 -5 299 -25 382
-56 59 -23 140 -66 165 -88 14 -13 28 -23 32 -23 9 0 136 -152 182 -219 21
-31 43 -59 50 -63 7 -5 5 -8 -6 -8 -10 0 -26 16 -38 38 -31 59 -171 223 -226
265 -67 51 -177 95 -298 118 -85 17 -133 20 -304 17 -111 -2 -202 -2 -202 0 0
5 106 71 115 71 6 0 2 -4 -7 -10z m-733 -49 c3 -6 -1 -7 -9 -4 -18 7 -21 14
-7 14 6 0 13 -4 16 -10z m2401 -76 c46 -31 83 -79 70 -92 -3 -2 -10 6 -15 20
-10 27 -81 83 -148 117 -24 12 -43 24 -43 26 0 8 79 -33 136 -71z m-2349 60
c-3 -3 -12 -4 -19 -1 -8 3 -5 6 6 6 11 1 17 -2 13 -5z m428 -4 c-3 -5 -12 -10
-18 -10 -7 0 -6 4 3 10 19 12 23 12 15 0z m-342 -7 c-13 -2 -33 -2 -45 0 -13
2 -3 4 22 4 25 0 35 -2 23 -4z m245 0 c-26 -2 -71 -2 -100 0 -29 2 -8 3 47 3
55 0 79 -1 53 -3z m332 -108 c340 -1 358 -2 430 -24 86 -26 184 -73 219 -104
59 -54 166 -195 187 -246 73 -176 -34 -240 -291 -175 -73 18 -146 27 -275 34
-191 10 -261 19 -360 45 -35 9 -98 23 -140 31 -41 7 -106 21 -144 29 -38 8
-160 24 -271 35 -111 10 -243 28 -293 40 -51 11 -150 29 -220 41 -116 19 -368
74 -451 98 -19 6 -93 16 -165 22 -137 12 -200 30 -368 108 -36 17 -72 31 -80
32 -11 0 -11 1 0 6 12 5 112 -35 251 -99 32 -15 77 -23 165 -29 83 -5 165 -19
261 -43 193 -48 274 -65 385 -81 52 -8 149 -25 215 -39 121 -25 254 -42 400
-52 77 -5 167 -22 360 -66 145 -33 165 -37 274 -53 58 -8 159 -15 227 -15 98
0 135 -4 190 -22 55 -18 93 -22 187 -23 139 0 147 5 147 93 0 60 -39 155 -71
172 -10 6 -19 15 -19 20 0 9 -7 18 -89 104 -41 42 -78 65 -185 110 -93 40
-373 57 -576 34 -83 -9 -129 -9 -206 0 -54 7 -135 16 -179 22 -74 8 -72 8 25
2 58 -3 265 -7 460 -7z m-2247 -22 c-7 -2 -19 -2 -25 0 -7 3 -2 5 12 5 14 0
19 -2 13 -5z m4029 -117 c1 -59 -29 -132 -74 -176 -41 -41 -113 -60 -222 -58
l-91 1 105 7 c136 9 191 33 235 104 27 45 30 57 29 134 0 58 2 78 8 62 5 -13
9 -47 10 -74z m3351 -31 c32 -3 72 -12 89 -21 48 -25 132 -94 114 -94 -8 0
-19 6 -23 13 -4 7 -28 27 -53 45 -54 37 -128 51 -275 53 -55 0 -109 4 -120 9
-19 9 135 6 268 -5z m-3978 -131 c-72 -8 -155 -8 -155 -1 0 4 42 6 93 5 50 0
79 -3 62 -4z m205 -44 c11 -8 2 -9 -30 -4 -25 3 -47 8 -49 10 -9 9 65 3 79 -6z"/>
</g>
</svg>
